<svg viewBox="0 0 500 200" xmlns="http://www.w3.org/2000/svg">
  <!-- Mão (handshake) -->
  <ellipse cx="80" cy="100" rx="45" ry="55" fill="#0066FF"/>
  <path d="M50 80 Q40 70 35 60 Q45 65 60 70 Z" fill="#FFFFFF"/>
  <path d="M60 95 Q55 85 50 75 Q65 85 75 95 Z" fill="#FFFFFF"/>
  <path d="M70 110 Q70 95 68 85 Q80 95 85 110 Z" fill="#FFFFFF"/>
  <path d="M75 125 Q78 110 80 100 Q85 115 85 130 Z" fill="#FFFFFF"/>

  <!-- Texto "mercado pago" -->
  <text x="150" y="110" font-family="Arial, sans-serif" font-size="54" font-weight="bold" fill="#003DA5">mercado</text>
  <text x="150" y="140" font-family="Arial, sans-serif" font-size="54" font-weight="bold" fill="#00A9DF">pago</text>

  <!-- Bandeiras de cartão (simplificado) -->
  <rect x="150" y="155" width="25" height="18" rx="2" fill="#1434CB"/>
  <text x="157" y="166" font-size="8" fill="white" font-weight="bold" text-anchor="middle">VISA</text>

  <rect x="180" y="155" width="25" height="18" rx="2" fill="#EB001B"/>
  <text x="187" y="166" font-size="8" fill="white" font-weight="bold" text-anchor="middle">MC</text>

  <rect x="210" y="155" width="25" height="18" rx="2" fill="#FF5F00"/>

  <rect x="240" y="155" width="25" height="18" rx="2" fill="#006FCF"/>

  <rect x="270" y="155" width="25" height="18" rx="2" fill="#0066B2"/>

  <rect x="300" y="155" width="25" height="18" rx="2" fill="#000000"/>
</svg>
